<svg width="20" height="20" viewBox="0 0 20 20" fill="none" xmlns="http://www.w3.org/2000/svg">
<path d="M3 6L3 14C3 15.6569 4.34315 17 6 17H14C15.6569 17 17 15.6569 17 14V6C17 4.34315 15.6569 3 14 3H6C4.34315 3 3 4.34315 3 6Z" fill="white" stroke="white" style="fill:white;fill-opacity:1;stroke:white;stroke-opacity:1;" stroke-width="2" stroke-linecap="round" stroke-linejoin="round"/>
<path d="M11.6 12.5998H8.4M10 12.5998V10.9998M8.39995 7H11.6C12.2627 7 12.8 7.53726 12.8 8.2V9.8C12.8 10.4627 12.2627 11 11.6 11H8.39995C7.73721 11 7.19995 10.4627 7.19995 9.8V8.2C7.19995 7.53726 7.73721 7 8.39995 7Z" stroke="black" style="stroke:black;stroke-opacity:1;" stroke-width="0.8" stroke-linecap="round" stroke-linejoin="round"/>
</svg>
